<svg width="22" height="15" viewBox="0 0 22 15" fill="#FF414B" xmlns="http://www.w3.org/2000/svg">
<path d="M0.0040739 7.31966C-0.125839 3.84433 2.8702 0.632711 6.29412 0.591044C8.0392 0.439816 9.73697 1.12835 11.0576 2.25134C10.5159 2.85655 9.96467 3.45476 9.37591 4.01479C8.21328 3.29712 6.81349 2.75019 5.4547 3.23593C3.26309 3.86998 1.93585 6.49912 2.74688 8.6775C3.41853 10.9526 6.14212 12.2012 8.27666 11.2455C9.38193 10.8434 10.1106 9.8072 10.4304 8.69382C9.16368 8.66818 7.89667 8.68421 6.62994 8.64866C6.62679 7.8829 6.62363 7.12006 6.62679 6.35431C8.73924 6.3511 10.8549 6.34469 12.9705 6.36392C13.1004 8.24014 12.8279 10.2481 11.6274 11.7539C9.9836 13.9035 6.94655 14.5343 4.4759 13.691C1.85383 12.816 -0.0529962 10.1321 0.0040739 7.31966Z"/>
<path d="M18.0102 3.68152C18.6703 3.68152 19.33 3.68152 19.9932 3.68152C19.9968 4.36954 20.0031 5.061 20.0067 5.74871C20.6699 5.75559 21.3366 5.75904 22 5.76248C22 6.4505 22 7.13476 22 7.82278C21.3369 7.82622 20.6702 7.82967 20.0067 7.83311C20.0001 8.52457 19.9968 9.21228 19.9932 9.90374C19.33 9.9003 18.6663 9.90374 18.0065 9.90374C18.0002 9.21228 18.0002 8.52457 17.9933 7.83655C17.3301 7.82935 16.6634 7.82622 16 7.82247C16 7.13445 16 6.45019 16 5.76217C16.6634 5.75872 17.3268 5.75528 17.9933 5.74839C17.9966 5.061 18.0032 4.36954 18.0102 3.68152Z"/>
</svg>
