<svg width="20" height="21" viewBox="0 0 20 21" fill="#FF414B" xmlns="http://www.w3.org/2000/svg">
<path fill-rule="evenodd" clip-rule="evenodd" d="M6.25 0.151489H13.75C17.2013 0.151489 20 2.97851 20 6.46462V14.0404C20 17.5265 17.2013 20.3535 13.75 20.3535H6.25C2.79875 20.3535 0 17.5265 0 14.0404V6.46462C0 2.97851 2.79875 0.151489 6.25 0.151489ZM13.75 18.4596C16.1625 18.4596 18.125 16.4772 18.125 14.0404V6.46462C18.125 4.02775 16.1625 2.04543 13.75 2.04543H6.25C3.8375 2.04543 1.875 4.02775 1.875 6.46462V14.0404C1.875 16.4772 3.8375 18.4596 6.25 18.4596H13.75Z"/>
<path fill-rule="evenodd" clip-rule="evenodd" d="M5 10.2525C5 7.46339 7.23875 5.20203 10 5.20203C12.7613 5.20203 15 7.46339 15 10.2525C15 13.0417 12.7613 15.303 10 15.303C7.23875 15.303 5 13.0417 5 10.2525ZM6.875 10.2525C6.875 11.9924 8.2775 13.4091 10 13.4091C11.7225 13.4091 13.125 11.9924 13.125 10.2525C13.125 8.51137 11.7225 7.09597 10 7.09597C8.2775 7.09597 6.875 8.51137 6.875 10.2525Z"/>
<path d="M15 5.20196C15.5523 5.20196 16 4.74973 16 4.19186C16 3.634 15.5523 3.18176 15 3.18176C14.4477 3.18176 14 3.634 14 4.19186C14 4.74973 14.4477 5.20196 15 5.20196Z"/>
</svg>
